<svg width="32" height="31" viewBox="0 0 32 31" fill="none" xmlns="http://www.w3.org/2000/svg">
<path fill-rule="evenodd" clip-rule="evenodd" d="M22.5473 16.338L17.0734 21.8163C16.695 22.1938 16.0823 22.1938 15.7049 21.8163C15.3265 21.4388 15.3265 20.8194 15.7049 20.4419L19.6932 16.4542H9.44798C8.91278 16.4542 8.48017 16.0186 8.48017 15.4863C8.48017 14.9539 8.91278 14.5184 9.44798 14.5184H19.6932L15.7049 10.5307C15.3265 10.1532 15.3265 9.54338 15.7049 9.15622C16.0823 8.77874 16.695 8.77874 17.0734 9.15622L22.5473 14.6345C22.7796 14.8668 22.8522 15.1862 22.799 15.4863C22.8522 15.7863 22.7796 16.1057 22.5473 16.338ZM16.2227 0C7.67011 0 0.737671 6.93011 0.737671 15.4863C0.737671 24.0424 7.67011 30.9725 16.2227 30.9725C24.7752 30.9725 31.7077 24.0424 31.7077 15.4863C31.7077 6.93011 24.7752 0 16.2227 0Z" fill="#fff"/>
</svg>
