<svg width="141" height="141" viewBox="0 0 141 141" fill="none" xmlns="http://www.w3.org/2000/svg">
<path d="M64.5883 17.6152C67.8312 17.6152 70.46 20.2441 70.46 23.4869C70.46 26.4981 68.1934 28.9799 65.2731 29.3191L64.5883 29.3586H29.3583V111.562H111.562V76.3319C111.562 73.089 114.19 70.4602 117.433 70.4602C120.445 70.4602 122.926 72.7269 123.265 75.6471L123.305 76.3319V111.562C123.305 117.753 118.515 122.825 112.438 123.273L111.562 123.305H29.3583C23.1675 123.305 18.0955 118.515 17.6472 112.438L17.615 111.562V29.3586C17.615 23.1677 22.4055 18.0957 28.4819 17.6474L29.3583 17.6152H64.5883ZM115.965 17.6152C120.019 17.6152 123.305 20.9013 123.305 24.9548V46.9736C123.305 50.2164 120.676 52.8452 117.433 52.8452C114.19 52.8452 111.562 50.2164 111.562 46.9736V37.6623L72.892 76.3319H82.2033C85.4462 76.3319 88.075 78.9606 88.075 82.2036C88.075 85.4465 85.4462 88.0752 82.2033 88.0752H60.1846C56.131 88.0752 52.845 84.7894 52.845 80.7356V58.7169C52.845 55.4741 55.4739 52.8452 58.7167 52.8452C61.9596 52.8452 64.5883 55.4741 64.5883 58.7169V68.0282L103.258 29.3586H93.9467C90.7037 29.3586 88.075 26.7297 88.075 23.4869C88.075 20.2441 90.7037 17.6152 93.9467 17.6152H115.965Z" fill="#27547A"/>
</svg>
