<svg width="40" height="40" viewBox="0 0 40 40" fill="none" xmlns="http://www.w3.org/2000/svg">
<g clip-path="url(#clip0_2016_250)">
<path d="M38.6667 1.33337L39.8923 1.8586C40.107 1.35747 39.995 0.776081 39.6096 0.390564C39.224 0.00504422 38.6427 -0.106922 38.1414 0.107846L38.6667 1.33337ZM1.33335 17.3334L0.808118 16.1079C0.347897 16.3051 0.0369751 16.7435 0.00307151 17.2431C-0.0308321 17.7426 0.217999 18.2191 0.64735 18.4767L1.33335 17.3334ZM22.6667 38.6667L21.5234 39.3526C21.781 39.7822 22.2574 40.031 22.757 39.9971C23.2565 39.963 23.695 39.652 23.8922 39.192L22.6667 38.6667ZM38.1414 0.107846L0.808118 16.1079L1.85857 18.5589L39.192 2.5589L38.1414 0.107846ZM0.64735 18.4767L13.9807 26.4767L15.3527 24.19L2.01934 16.19L0.64735 18.4767ZM13.5233 26.0194L21.5234 39.3526L23.81 37.9808L15.81 24.6474L13.5233 26.0194ZM23.8922 39.192L39.8923 1.8586L37.4411 0.808145L21.4412 38.1414L23.8922 39.192ZM37.7238 0.390564L13.7239 24.3906L15.6095 26.2762L39.6096 2.27618L37.7238 0.390564Z" fill="#27547A"/>
</g>
<defs>
<clipPath id="clip0_2016_250">
<rect width="40" height="40" fill="white"/>
</clipPath>
</defs>
</svg>
